#!OML:ASF H:\Not Pregnant\Project 1\Capture day 1\Session 1\non-pregnant.ASF
:FULLY-SPECIFIED
:DEGREES
454
root -5.93093 16.1466 34.8517 156.689 -83.6661 -143.577
lowerback -10.868 1.87971 3.32551
upperback -7.08189 1.87012 0.162545
thorax -1.1917 0.688842 -1.51397
lowerneck 15.76 -7.56144 -31.8916
upperneck -2.57861 -18.0404 41.8592
head 4.35821 -11.4855 22.2861
rclavicle -6.33626e-015 -1.53064e-014
rhumerus -39.623 -0.947513 -86.0742
rradius 26.2848
rwrist 14.1841
rhand -10.9413 -3.66699
rfingers 7.12502
rthumb 15.0771 -33.0979
lclavicle -6.33626e-015 -1.53064e-014
lhumerus -44.0209 -7.44126 91.1859
lradius 35.2324
lwrist 50.4126
lhand 8.33957 -5.90118
lfingers 7.12502
lthumb 33.5498 20.9814
rfemur -18.5063 -13.4322 26.1354
rtibia 20.9185
rfoot -19.0977 23.0253
rtoes -5.1829
lfemur -19.6962 4.66264 -16.6268
ltibia 23.385
lfoot -17.348 -3.71734
ltoes -17.6312
455
root -5.9313 16.1462 34.8532 156.852 -83.6018 -143.759
lowerback -10.8969 1.88427 3.33065
upperback -7.06389 1.87453 0.17334
thorax -1.15711 0.692021 -1.5043
lowerneck 15.7783 -7.5549 -31.9341
upperneck -2.5187 -18.0583 41.8311
head 4.3792 -11.4942 22.2794
rclavicle 6.08778e-015 4.37326e-015
rhumerus -39.4432 -0.867621 -86.1587
rradius 26.3928
rwrist 14.0573
rhand -11.11 -3.70547
rfingers 7.12502
rthumb 14.9146 -33.1485
lclavicle 6.08778e-015 4.37326e-015
lhumerus -43.9749 -7.28382 91.0508
lradius 35.1294
lwrist 50.3852
lhand 8.51145 -5.85626
lfingers 7.12502
lthumb 33.7132 20.9907
rfemur -18.4841 -13.3545 26.1359
rtibia 20.9226
rfoot -19.0924 23.0084
rtoes -5.20172
lfemur -19.6555 4.67819 -16.6108
ltibia 23.3781
lfoot -17.3519 -3.66736
ltoes -17.6389
456
root -5.93158 16.1458 34.8543 156.911 -83.5305 -143.843
lowerback -10.9212 1.89122 3.34633
upperback -7.04661 1.88138 0.185712
thorax -1.12547 0.69607 -1.49877
lowerneck 15.8021 -7.54744 -31.9728
upperneck -2.459 -18.076 41.8043
head 4.39868 -11.5036 22.2732
rclavicle 6.73383e-015 -9.54166e-015
rhumerus -39.2652 -0.812892 -86.2353
rradius 26.494
rwrist 13.9569
rhand -11.2711 -3.73015
rfingers 7.12502
rthumb 14.7594 -33.1847
lclavicle 6.73383e-015 -9.54166e-015
lhumerus -43.9279 -7.13168 90.9157
lradius 35.0208
lwrist 50.3488
lhand 8.67562 -5.80963
lfingers 7.12502
lthumb 33.8692 21.0031
rfemur -18.4482 -13.2593 26.1487
rtibia 20.9126
rfoot -19.0795 22.9742
rtoes -5.23135
lfemur -19.6153 4.68996 -16.5783
ltibia 23.3831
lfoot -17.3593 -3.6092
ltoes -17.6498
457
root -5.93179 16.1452 34.8553 156.972 -83.4591 -143.93
lowerback -10.9428 1.90192 3.36233
upperback -7.03061 1.89332 0.193255
thorax -1.0962 0.702519 -1.49798
lowerneck 15.8332 -7.54282 -31.9962
upperneck -2.40312 -18.0954 41.7746
head 4.41372 -11.514 22.2603
rclavicle -1.36913e-014 -2.14687e-014
rhumerus -39.0883 -0.797728 -86.3044
rradius 26.5859
rwrist 13.896
rhand -11.4317 -3.74238
rfingers 7.12502
rthumb 14.6046 -33.2082
lclavicle -1.36913e-014 -2.14687e-014
lhumerus -43.8795 -6.99038 90.7781
lradius 34.9078
lwrist 50.3109
lhand 8.84987 -5.75965
lfingers 7.12502
lthumb 34.0347 21.0164
rfemur -18.4079 -13.1703 26.1624
rtibia 20.8972
rfoot -19.0686 22.945
rtoes -5.27071
lfemur -19.575 4.69762 -16.5451
ltibia 23.3933
lfoot -17.3671 -3.54727
ltoes -17.648
458
root -5.93198 16.1448 34.8565 157.12 -83.3948 -144.104
lowerback -10.9665 1.91628 3.36922
upperback -7.01668 1.91083 0.19115
thorax -1.0676 0.711805 -1.50149
lowerneck 15.8697 -7.54205 -32.0021
upperneck -2.3484 -18.1172 41.7401
head 4.4251 -11.5253 22.2381
rclavicle 6.33626e-015 3.97569e-016
rhumerus -38.9095 -0.872683 -86.3399
rradius 26.6589
rwrist 13.932
rhand -11.5653 -3.71953
rfingers 7.12502
rthumb 14.4759 -33.1946
lclavicle 6.33626e-015 3.97569e-016
lhumerus -43.833 -6.86883 90.6425
lradius 34.7949
lwrist 50.2703
lhand 9.03042 -5.70587
lfingers 7.12502
lthumb 34.2062 21.0319
rfemur -18.3692 -13.0925 26.1639
rtibia 20.8799
rfoot -19.0576 22.9263
rtoes -5.3033
lfemur -19.5369 4.70156 -16.5259
ltibia 23.4053
lfoot -17.3766 -3.48028
ltoes -17.6675
459
root -5.93232 16.1443 34.8577 157.303 -83.3331 -144.316
lowerback -10.9877 1.94433 3.37828
upperback -7.0032 1.9467 0.170696
thorax -1.03927 0.729964 -1.52339
lowerneck 15.9225 -7.55226 -31.9729
upperneck -2.30557 -18.1506 41.7066
head 4.43064 -11.5437 22.2038
rclavicle -2.60159e-014 -1.43125e-014
rhumerus -38.7348 -1.0479 -86.3566
rradius 26.7188
rwrist 14.0385
rhand -11.6883 -3.67778
rfingers 7.12502
rthumb 14.3574 -33.1613
lclavicle -2.60159e-014 -1.43125e-014
lhumerus -43.7849 -6.79806 90.5072
lradius 34.68
lwrist 50.2392
lhand 9.23512 -5.65202
lfingers 7.12502
lthumb 34.4005 21.0419
rfemur -18.3264 -13.0291 26.1588
rtibia 20.8609
rfoot -19.0463 22.9262
rtoes -5.31392
lfemur -19.4947 4.69066 -16.5116
ltibia 23.4197
lfoot -17.3861 -3.39635
ltoes -17.7046
